<mxfile host="app.diagrams.net" modified="2022-07-11T09:27:38.731Z" agent="5.0 (Macintosh; Intel Mac OS X 10_15_7) AppleWebKit/537.36 (KHTML, like Gecko) Chrome/103.0.0.0 Safari/537.36" etag="EnjfVHcaJuXzWFFcCSmM" version="17.5.0" type="github">
  <diagram id="UVQPu_6LRNLYKDC9Vk5J" name="第 1 页">
    <mxGraphModel dx="2196" dy="1075" grid="1" gridSize="10" guides="1" tooltips="1" connect="1" arrows="1" fold="1" page="1" pageScale="1" pageWidth="4681" pageHeight="3300" math="0" shadow="0">
      <root>
        <mxCell id="0" />
        <mxCell id="1" parent="0" />
        <mxCell id="02EgvRaaj_lZs3z_42Fv-19" style="edgeStyle=orthogonalEdgeStyle;rounded=0;orthogonalLoop=1;jettySize=auto;html=1;exitX=1;exitY=0.25;exitDx=0;exitDy=0;entryX=0;entryY=0.25;entryDx=0;entryDy=0;" edge="1" parent="1" source="02EgvRaaj_lZs3z_42Fv-1" target="02EgvRaaj_lZs3z_42Fv-2">
          <mxGeometry relative="1" as="geometry" />
        </mxCell>
        <mxCell id="02EgvRaaj_lZs3z_42Fv-29" value="调用购买API" style="edgeLabel;html=1;align=center;verticalAlign=middle;resizable=0;points=[];" vertex="1" connectable="0" parent="02EgvRaaj_lZs3z_42Fv-19">
          <mxGeometry x="-0.1714" y="1" relative="1" as="geometry">
            <mxPoint x="12" y="-14" as="offset" />
          </mxGeometry>
        </mxCell>
        <mxCell id="02EgvRaaj_lZs3z_42Fv-20" style="edgeStyle=orthogonalEdgeStyle;rounded=0;orthogonalLoop=1;jettySize=auto;html=1;exitX=0.25;exitY=1;exitDx=0;exitDy=0;entryX=0.25;entryY=0;entryDx=0;entryDy=0;" edge="1" parent="1" source="02EgvRaaj_lZs3z_42Fv-1" target="02EgvRaaj_lZs3z_42Fv-6">
          <mxGeometry relative="1" as="geometry" />
        </mxCell>
        <mxCell id="02EgvRaaj_lZs3z_42Fv-1" value="业务方App" style="rounded=1;whiteSpace=wrap;html=1;" vertex="1" parent="1">
          <mxGeometry x="630" y="270" width="120" height="60" as="geometry" />
        </mxCell>
        <mxCell id="02EgvRaaj_lZs3z_42Fv-18" style="edgeStyle=orthogonalEdgeStyle;rounded=0;orthogonalLoop=1;jettySize=auto;html=1;exitX=0;exitY=0.75;exitDx=0;exitDy=0;entryX=1;entryY=0.75;entryDx=0;entryDy=0;spacing=2;spacingTop=0;" edge="1" parent="1" source="02EgvRaaj_lZs3z_42Fv-2" target="02EgvRaaj_lZs3z_42Fv-1">
          <mxGeometry relative="1" as="geometry" />
        </mxCell>
        <mxCell id="02EgvRaaj_lZs3z_42Fv-34" value="购买结果" style="edgeLabel;html=1;align=center;verticalAlign=middle;resizable=0;points=[];" vertex="1" connectable="0" parent="02EgvRaaj_lZs3z_42Fv-18">
          <mxGeometry x="0.0286" y="3" relative="1" as="geometry">
            <mxPoint y="7" as="offset" />
          </mxGeometry>
        </mxCell>
        <mxCell id="02EgvRaaj_lZs3z_42Fv-25" style="edgeStyle=orthogonalEdgeStyle;rounded=0;orthogonalLoop=1;jettySize=auto;html=1;exitX=0.75;exitY=1;exitDx=0;exitDy=0;entryX=0.75;entryY=0;entryDx=0;entryDy=0;" edge="1" parent="1" source="02EgvRaaj_lZs3z_42Fv-2" target="02EgvRaaj_lZs3z_42Fv-4">
          <mxGeometry relative="1" as="geometry" />
        </mxCell>
        <mxCell id="02EgvRaaj_lZs3z_42Fv-30" value="创建订单&lt;br&gt;校验订单" style="edgeLabel;html=1;align=center;verticalAlign=middle;resizable=0;points=[];" vertex="1" connectable="0" parent="02EgvRaaj_lZs3z_42Fv-25">
          <mxGeometry x="-0.5154" relative="1" as="geometry">
            <mxPoint x="30" y="39" as="offset" />
          </mxGeometry>
        </mxCell>
        <mxCell id="02EgvRaaj_lZs3z_42Fv-2" value="SDK" style="whiteSpace=wrap;html=1;rounded=1;" vertex="1" parent="1">
          <mxGeometry x="890" y="270" width="120" height="60" as="geometry" />
        </mxCell>
        <mxCell id="02EgvRaaj_lZs3z_42Fv-23" style="edgeStyle=orthogonalEdgeStyle;rounded=0;orthogonalLoop=1;jettySize=auto;html=1;exitX=0;exitY=0.75;exitDx=0;exitDy=0;entryX=1;entryY=0.75;entryDx=0;entryDy=0;" edge="1" parent="1" source="02EgvRaaj_lZs3z_42Fv-4" target="02EgvRaaj_lZs3z_42Fv-6">
          <mxGeometry relative="1" as="geometry" />
        </mxCell>
        <mxCell id="02EgvRaaj_lZs3z_42Fv-26" style="edgeStyle=orthogonalEdgeStyle;rounded=0;orthogonalLoop=1;jettySize=auto;html=1;exitX=0.75;exitY=1;exitDx=0;exitDy=0;entryX=0.75;entryY=0;entryDx=0;entryDy=0;" edge="1" parent="1" source="02EgvRaaj_lZs3z_42Fv-4" target="02EgvRaaj_lZs3z_42Fv-8">
          <mxGeometry relative="1" as="geometry" />
        </mxCell>
        <mxCell id="02EgvRaaj_lZs3z_42Fv-31" value="校验订单" style="edgeLabel;html=1;align=center;verticalAlign=middle;resizable=0;points=[];" vertex="1" connectable="0" parent="02EgvRaaj_lZs3z_42Fv-26">
          <mxGeometry x="-0.1538" y="1" relative="1" as="geometry">
            <mxPoint x="29" y="5" as="offset" />
          </mxGeometry>
        </mxCell>
        <mxCell id="02EgvRaaj_lZs3z_42Fv-28" style="edgeStyle=orthogonalEdgeStyle;rounded=0;orthogonalLoop=1;jettySize=auto;html=1;exitX=0.25;exitY=0;exitDx=0;exitDy=0;entryX=0.25;entryY=1;entryDx=0;entryDy=0;" edge="1" parent="1" source="02EgvRaaj_lZs3z_42Fv-4" target="02EgvRaaj_lZs3z_42Fv-2">
          <mxGeometry relative="1" as="geometry" />
        </mxCell>
        <mxCell id="02EgvRaaj_lZs3z_42Fv-33" value="创建订单结果&lt;br&gt;验单结果" style="edgeLabel;html=1;align=center;verticalAlign=middle;resizable=0;points=[];" vertex="1" connectable="0" parent="02EgvRaaj_lZs3z_42Fv-28">
          <mxGeometry x="0.0462" y="-2" relative="1" as="geometry">
            <mxPoint x="-42" y="8" as="offset" />
          </mxGeometry>
        </mxCell>
        <mxCell id="02EgvRaaj_lZs3z_42Fv-4" value="IAP服务端" style="whiteSpace=wrap;html=1;rounded=1;" vertex="1" parent="1">
          <mxGeometry x="890" y="460" width="120" height="60" as="geometry" />
        </mxCell>
        <mxCell id="02EgvRaaj_lZs3z_42Fv-21" style="edgeStyle=orthogonalEdgeStyle;rounded=0;orthogonalLoop=1;jettySize=auto;html=1;exitX=0.75;exitY=0;exitDx=0;exitDy=0;entryX=0.75;entryY=1;entryDx=0;entryDy=0;" edge="1" parent="1" source="02EgvRaaj_lZs3z_42Fv-6" target="02EgvRaaj_lZs3z_42Fv-1">
          <mxGeometry relative="1" as="geometry" />
        </mxCell>
        <mxCell id="02EgvRaaj_lZs3z_42Fv-22" style="edgeStyle=orthogonalEdgeStyle;rounded=0;orthogonalLoop=1;jettySize=auto;html=1;exitX=1;exitY=0.25;exitDx=0;exitDy=0;entryX=0;entryY=0.25;entryDx=0;entryDy=0;" edge="1" parent="1" source="02EgvRaaj_lZs3z_42Fv-6" target="02EgvRaaj_lZs3z_42Fv-4">
          <mxGeometry relative="1" as="geometry" />
        </mxCell>
        <mxCell id="02EgvRaaj_lZs3z_42Fv-6" value="业务方服务端" style="whiteSpace=wrap;html=1;rounded=1;" vertex="1" parent="1">
          <mxGeometry x="630" y="460" width="120" height="60" as="geometry" />
        </mxCell>
        <mxCell id="02EgvRaaj_lZs3z_42Fv-27" style="edgeStyle=orthogonalEdgeStyle;rounded=0;orthogonalLoop=1;jettySize=auto;html=1;exitX=0.25;exitY=0;exitDx=0;exitDy=0;entryX=0.25;entryY=1;entryDx=0;entryDy=0;" edge="1" parent="1" source="02EgvRaaj_lZs3z_42Fv-8" target="02EgvRaaj_lZs3z_42Fv-4">
          <mxGeometry relative="1" as="geometry" />
        </mxCell>
        <mxCell id="02EgvRaaj_lZs3z_42Fv-32" value="验单结果" style="edgeLabel;html=1;align=center;verticalAlign=middle;resizable=0;points=[];" vertex="1" connectable="0" parent="02EgvRaaj_lZs3z_42Fv-27">
          <mxGeometry x="0.0462" y="2" relative="1" as="geometry">
            <mxPoint x="-28" as="offset" />
          </mxGeometry>
        </mxCell>
        <mxCell id="02EgvRaaj_lZs3z_42Fv-8" value="Apple服务端" style="whiteSpace=wrap;html=1;rounded=1;" vertex="1" parent="1">
          <mxGeometry x="890" y="650" width="120" height="60" as="geometry" />
        </mxCell>
      </root>
    </mxGraphModel>
  </diagram>
</mxfile>
